<mxfile modified="2021-09-16T09:28:05.274Z" host="app.diagrams.net" agent="5.0 (Windows NT 10.0; Win64; x64) AppleWebKit/537.36 (KHTML, like Gecko) Chrome/93.0.4577.82 Safari/537.36" etag="P3c3VX5J_oyVcfBZzTq_" version="15.2.7" type="github">
  <diagram id="Ht1M8jgEwFfnCIfOTk4-" name="Page-1">
    <mxGraphModel dx="1422" dy="661" grid="1" gridSize="10" guides="1" tooltips="1" connect="1" arrows="1" fold="1" page="1" pageScale="1" pageWidth="1169" pageHeight="827" math="0" shadow="0">
      <root>
        <mxCell id="0" />
        <mxCell id="1" parent="0" visible="0" />
        <mxCell id="Jh67MtOWTNyrH5CAgedg-41" value="Groups" parent="0" visible="0" />
        <mxCell id="Jh67MtOWTNyrH5CAgedg-42" value="Icons" style="" parent="0" />
        <mxCell id="Jh67MtOWTNyrH5CAgedg-58" style="edgeStyle=orthogonalEdgeStyle;rounded=0;orthogonalLoop=1;jettySize=auto;html=1;exitX=1;exitY=0.424;exitDx=0;exitDy=0;exitPerimeter=0;" parent="Jh67MtOWTNyrH5CAgedg-42" source="Jh67MtOWTNyrH5CAgedg-55" edge="1">
          <mxGeometry relative="1" as="geometry">
            <mxPoint x="280" y="459.9839999999999" as="targetPoint" />
          </mxGeometry>
        </mxCell>
        <mxCell id="BcH7QsxdrP2YL8XhsOHd-153" value="&lt;font style=&quot;font-size: 14px&quot;&gt;&lt;ul&gt;&lt;li&gt;&lt;font style=&quot;font-size: 14px&quot;&gt;File upload&lt;/font&gt;&lt;/li&gt;&lt;li&gt;&lt;font style=&quot;font-size: 14px&quot;&gt;Attendance&lt;/font&gt;&lt;/li&gt;&lt;li&gt;Time Off&lt;/li&gt;&lt;li&gt;Bonus and&lt;br&gt;Sallary&lt;/li&gt;&lt;/ul&gt;&lt;/font&gt;" style="text;html=1;strokeColor=none;fillColor=none;align=left;verticalAlign=middle;whiteSpace=wrap;rounded=0;" vertex="1" parent="Jh67MtOWTNyrH5CAgedg-42">
          <mxGeometry x="10" y="500" width="110" height="20" as="geometry" />
        </mxCell>
        <mxCell id="BcH7QsxdrP2YL8XhsOHd-77" parent="0" />
        <mxCell id="BcH7QsxdrP2YL8XhsOHd-78" value="Human Resource Management System (HRMS) Implementation on AWS" style="text;html=1;resizable=0;points=[];autosize=1;align=left;verticalAlign=top;spacingTop=-4;fontSize=30;fontStyle=1;labelBackgroundColor=none;" vertex="1" parent="BcH7QsxdrP2YL8XhsOHd-77">
          <mxGeometry x="36.5" y="26.5" width="1040" height="40" as="geometry" />
        </mxCell>
        <mxCell id="BcH7QsxdrP2YL8XhsOHd-79" value="&lt;div style=&quot;font-size: 18px&quot;&gt;&lt;font style=&quot;font-size: 18px&quot;&gt;Human Resource Management software (HRMS) implementation on AWS provides company a highly available,&lt;/font&gt;&lt;/div&gt;&lt;div style=&quot;font-size: 18px&quot;&gt;&lt;font style=&quot;font-size: 18px&quot;&gt;resilient, and cost effective architecture.&amp;nbsp;&lt;/font&gt;&lt;/div&gt;" style="text;html=1;resizable=0;points=[];autosize=1;align=left;verticalAlign=top;spacingTop=-4;fontSize=16;labelBackgroundColor=none;" vertex="1" parent="BcH7QsxdrP2YL8XhsOHd-77">
          <mxGeometry x="40" y="70" width="900" height="40" as="geometry" />
        </mxCell>
        <mxCell id="BcH7QsxdrP2YL8XhsOHd-80" value="" style="line;strokeWidth=2;html=1;fontSize=14;labelBackgroundColor=none;" vertex="1" parent="BcH7QsxdrP2YL8XhsOHd-77">
          <mxGeometry x="40" y="115" width="1080" height="10" as="geometry" />
        </mxCell>
        <mxCell id="BcH7QsxdrP2YL8XhsOHd-81" style="edgeStyle=orthogonalEdgeStyle;rounded=0;orthogonalLoop=1;jettySize=auto;html=1;entryX=0;entryY=0.5;entryDx=0;entryDy=0;entryPerimeter=0;" edge="1" parent="BcH7QsxdrP2YL8XhsOHd-77" source="BcH7QsxdrP2YL8XhsOHd-123" target="BcH7QsxdrP2YL8XhsOHd-102">
          <mxGeometry relative="1" as="geometry">
            <mxPoint x="150" y="350" as="targetPoint" />
          </mxGeometry>
        </mxCell>
        <mxCell id="BcH7QsxdrP2YL8XhsOHd-82" value="Groups" parent="0" />
        <mxCell id="BcH7QsxdrP2YL8XhsOHd-92" value="&lt;div style=&quot;text-align: center&quot;&gt;&lt;span&gt;E&lt;/span&gt;&lt;span style=&quot;font-size: 13px&quot;&gt;mployee Interface&lt;/span&gt;&lt;/div&gt;" style="points=[[0,0],[0.25,0],[0.5,0],[0.75,0],[1,0],[1,0.25],[1,0.5],[1,0.75],[1,1],[0.75,1],[0.5,1],[0.25,1],[0,1],[0,0.75],[0,0.5],[0,0.25]];outlineConnect=0;gradientColor=none;html=1;whiteSpace=wrap;fontSize=12;fontStyle=0;shape=mxgraph.aws4.group;grIcon=mxgraph.aws4.group_on_premise;strokeColor=#5A6C86;fillColor=none;verticalAlign=top;align=left;spacingLeft=30;fontColor=#5A6C86;dashed=0;" vertex="1" parent="BcH7QsxdrP2YL8XhsOHd-82">
          <mxGeometry x="20.93" y="379" width="119.07" height="191" as="geometry" />
        </mxCell>
        <mxCell id="BcH7QsxdrP2YL8XhsOHd-83" value="AWS Cloud" style="points=[[0,0],[0.25,0],[0.5,0],[0.75,0],[1,0],[1,0.25],[1,0.5],[1,0.75],[1,1],[0.75,1],[0.5,1],[0.25,1],[0,1],[0,0.75],[0,0.5],[0,0.25]];outlineConnect=0;gradientColor=none;html=1;whiteSpace=wrap;fontSize=12;fontStyle=0;shape=mxgraph.aws4.group;grIcon=mxgraph.aws4.group_aws_cloud_alt;strokeColor=#232F3E;fillColor=none;verticalAlign=top;align=left;spacingLeft=30;fontColor=#232F3E;dashed=0;labelBackgroundColor=none;" vertex="1" parent="BcH7QsxdrP2YL8XhsOHd-82">
          <mxGeometry x="160" y="280" width="960" height="520" as="geometry" />
        </mxCell>
        <mxCell id="BcH7QsxdrP2YL8XhsOHd-86" value="VPC" style="points=[[0,0],[0.25,0],[0.5,0],[0.75,0],[1,0],[1,0.25],[1,0.5],[1,0.75],[1,1],[0.75,1],[0.5,1],[0.25,1],[0,1],[0,0.75],[0,0.5],[0,0.25]];outlineConnect=0;gradientColor=none;html=1;whiteSpace=wrap;fontSize=12;fontStyle=0;shape=mxgraph.aws4.group;grIcon=mxgraph.aws4.group_vpc;strokeColor=#248814;fillColor=none;verticalAlign=top;align=left;spacingLeft=30;fontColor=#AAB7B8;dashed=0;" vertex="1" parent="BcH7QsxdrP2YL8XhsOHd-82">
          <mxGeometry x="180" y="380" width="820" height="400" as="geometry" />
        </mxCell>
        <mxCell id="BcH7QsxdrP2YL8XhsOHd-87" value="Public subnet" style="points=[[0,0],[0.25,0],[0.5,0],[0.75,0],[1,0],[1,0.25],[1,0.5],[1,0.75],[1,1],[0.75,1],[0.5,1],[0.25,1],[0,1],[0,0.75],[0,0.5],[0,0.25]];outlineConnect=0;gradientColor=none;html=1;whiteSpace=wrap;fontSize=12;fontStyle=0;shape=mxgraph.aws4.group;grIcon=mxgraph.aws4.group_security_group;grStroke=0;strokeColor=#248814;fillColor=#E9F3E6;verticalAlign=top;align=left;spacingLeft=30;fontColor=#248814;dashed=0;" vertex="1" parent="BcH7QsxdrP2YL8XhsOHd-82">
          <mxGeometry x="680" y="400" width="280" height="120" as="geometry" />
        </mxCell>
        <mxCell id="BcH7QsxdrP2YL8XhsOHd-88" value="Public subnet" style="points=[[0,0],[0.25,0],[0.5,0],[0.75,0],[1,0],[1,0.25],[1,0.5],[1,0.75],[1,1],[0.75,1],[0.5,1],[0.25,1],[0,1],[0,0.75],[0,0.5],[0,0.25]];outlineConnect=0;gradientColor=none;html=1;whiteSpace=wrap;fontSize=12;fontStyle=0;shape=mxgraph.aws4.group;grIcon=mxgraph.aws4.group_security_group;grStroke=0;strokeColor=#248814;fillColor=#E9F3E6;verticalAlign=top;align=left;spacingLeft=30;fontColor=#248814;dashed=0;" vertex="1" parent="BcH7QsxdrP2YL8XhsOHd-82">
          <mxGeometry x="280" y="400" width="280" height="120" as="geometry" />
        </mxCell>
        <mxCell id="BcH7QsxdrP2YL8XhsOHd-89" value="Private subnet" style="points=[[0,0],[0.25,0],[0.5,0],[0.75,0],[1,0],[1,0.25],[1,0.5],[1,0.75],[1,1],[0.75,1],[0.5,1],[0.25,1],[0,1],[0,0.75],[0,0.5],[0,0.25]];outlineConnect=0;gradientColor=none;html=1;whiteSpace=wrap;fontSize=12;fontStyle=0;shape=mxgraph.aws4.group;grIcon=mxgraph.aws4.group_security_group;grStroke=0;strokeColor=#147EBA;fillColor=#E6F2F8;verticalAlign=top;align=left;spacingLeft=30;fontColor=#147EBA;dashed=0;" vertex="1" parent="BcH7QsxdrP2YL8XhsOHd-82">
          <mxGeometry x="280" y="540" width="680" height="100" as="geometry" />
        </mxCell>
        <mxCell id="BcH7QsxdrP2YL8XhsOHd-90" value="Private subnet" style="points=[[0,0],[0.25,0],[0.5,0],[0.75,0],[1,0],[1,0.25],[1,0.5],[1,0.75],[1,1],[0.75,1],[0.5,1],[0.25,1],[0,1],[0,0.75],[0,0.5],[0,0.25]];outlineConnect=0;gradientColor=none;html=1;whiteSpace=wrap;fontSize=12;fontStyle=0;shape=mxgraph.aws4.group;grIcon=mxgraph.aws4.group_security_group;grStroke=0;strokeColor=#147EBA;fillColor=#E6F2F8;verticalAlign=top;align=left;spacingLeft=30;fontColor=#147EBA;dashed=0;" vertex="1" parent="BcH7QsxdrP2YL8XhsOHd-82">
          <mxGeometry x="280" y="660" width="280" height="100" as="geometry" />
        </mxCell>
        <mxCell id="BcH7QsxdrP2YL8XhsOHd-91" value="Private subnet" style="points=[[0,0],[0.25,0],[0.5,0],[0.75,0],[1,0],[1,0.25],[1,0.5],[1,0.75],[1,1],[0.75,1],[0.5,1],[0.25,1],[0,1],[0,0.75],[0,0.5],[0,0.25]];outlineConnect=0;gradientColor=none;html=1;whiteSpace=wrap;fontSize=12;fontStyle=0;shape=mxgraph.aws4.group;grIcon=mxgraph.aws4.group_security_group;grStroke=0;strokeColor=#147EBA;fillColor=#E6F2F8;verticalAlign=top;align=left;spacingLeft=30;fontColor=#147EBA;dashed=0;" vertex="1" parent="BcH7QsxdrP2YL8XhsOHd-82">
          <mxGeometry x="680" y="660" width="280" height="100" as="geometry" />
        </mxCell>
        <mxCell id="BcH7QsxdrP2YL8XhsOHd-84" value="Availability Zone" style="fillColor=none;strokeColor=#147EBA;dashed=1;verticalAlign=top;fontStyle=0;fontColor=#147EBA;align=left;" vertex="1" parent="BcH7QsxdrP2YL8XhsOHd-82">
          <mxGeometry x="170" y="309" width="410" height="481" as="geometry" />
        </mxCell>
        <mxCell id="BcH7QsxdrP2YL8XhsOHd-85" value="Availability Zone" style="fillColor=none;strokeColor=#147EBA;dashed=1;verticalAlign=top;fontStyle=0;fontColor=#147EBA;align=left;" vertex="1" parent="BcH7QsxdrP2YL8XhsOHd-82">
          <mxGeometry x="660" y="309" width="370" height="481" as="geometry" />
        </mxCell>
        <mxCell id="BcH7QsxdrP2YL8XhsOHd-93" value="Icons" parent="0" />
        <mxCell id="BcH7QsxdrP2YL8XhsOHd-94" style="edgeStyle=orthogonalEdgeStyle;rounded=0;orthogonalLoop=1;jettySize=auto;html=1;entryX=0.5;entryY=0;entryDx=0;entryDy=0;entryPerimeter=0;" edge="1" parent="BcH7QsxdrP2YL8XhsOHd-93" source="BcH7QsxdrP2YL8XhsOHd-95" target="BcH7QsxdrP2YL8XhsOHd-100">
          <mxGeometry relative="1" as="geometry" />
        </mxCell>
        <mxCell id="BcH7QsxdrP2YL8XhsOHd-95" value="" style="outlineConnect=0;fontColor=#232F3E;gradientColor=none;fillColor=#232F3E;strokeColor=none;dashed=0;verticalLabelPosition=bottom;verticalAlign=top;align=center;html=1;fontSize=12;fontStyle=0;aspect=fixed;pointerEvents=1;shape=mxgraph.aws4.users;" vertex="1" parent="BcH7QsxdrP2YL8XhsOHd-93">
          <mxGeometry x="320" y="160" width="40" height="40" as="geometry" />
        </mxCell>
        <mxCell id="BcH7QsxdrP2YL8XhsOHd-96" style="edgeStyle=orthogonalEdgeStyle;rounded=0;orthogonalLoop=1;jettySize=auto;html=1;entryX=0.5;entryY=0;entryDx=0;entryDy=0;entryPerimeter=0;" edge="1" parent="BcH7QsxdrP2YL8XhsOHd-93" source="BcH7QsxdrP2YL8XhsOHd-97" target="BcH7QsxdrP2YL8XhsOHd-100">
          <mxGeometry relative="1" as="geometry" />
        </mxCell>
        <mxCell id="BcH7QsxdrP2YL8XhsOHd-97" value="" style="outlineConnect=0;fontColor=#232F3E;gradientColor=none;fillColor=#232F3E;strokeColor=none;dashed=0;verticalLabelPosition=bottom;verticalAlign=top;align=center;html=1;fontSize=12;fontStyle=0;aspect=fixed;pointerEvents=1;shape=mxgraph.aws4.users;" vertex="1" parent="BcH7QsxdrP2YL8XhsOHd-93">
          <mxGeometry x="560" y="160" width="40" height="40" as="geometry" />
        </mxCell>
        <mxCell id="BcH7QsxdrP2YL8XhsOHd-98" style="edgeStyle=orthogonalEdgeStyle;rounded=0;orthogonalLoop=1;jettySize=auto;html=1;entryX=0.5;entryY=0;entryDx=0;entryDy=0;entryPerimeter=0;" edge="1" parent="BcH7QsxdrP2YL8XhsOHd-93" source="BcH7QsxdrP2YL8XhsOHd-100" target="BcH7QsxdrP2YL8XhsOHd-105">
          <mxGeometry relative="1" as="geometry" />
        </mxCell>
        <mxCell id="BcH7QsxdrP2YL8XhsOHd-99" style="edgeStyle=orthogonalEdgeStyle;rounded=0;orthogonalLoop=1;jettySize=auto;html=1;" edge="1" parent="BcH7QsxdrP2YL8XhsOHd-93" source="BcH7QsxdrP2YL8XhsOHd-100" target="BcH7QsxdrP2YL8XhsOHd-114">
          <mxGeometry relative="1" as="geometry" />
        </mxCell>
        <mxCell id="BcH7QsxdrP2YL8XhsOHd-100" value="" style="points=[[0,0,0],[0.25,0,0],[0.5,0,0],[0.75,0,0],[1,0,0],[0,1,0],[0.25,1,0],[0.5,1,0],[0.75,1,0],[1,1,0],[0,0.25,0],[0,0.5,0],[0,0.75,0],[1,0.25,0],[1,0.5,0],[1,0.75,0]];outlineConnect=0;fontColor=#232F3E;gradientColor=#4AB29A;gradientDirection=north;fillColor=#116D5B;strokeColor=#ffffff;dashed=0;verticalLabelPosition=bottom;verticalAlign=top;align=center;html=1;fontSize=12;fontStyle=0;aspect=fixed;shape=mxgraph.aws4.resourceIcon;resIcon=mxgraph.aws4.appstream_20;" vertex="1" parent="BcH7QsxdrP2YL8XhsOHd-93">
          <mxGeometry x="440" y="320" width="40" height="40" as="geometry" />
        </mxCell>
        <mxCell id="BcH7QsxdrP2YL8XhsOHd-101" style="edgeStyle=orthogonalEdgeStyle;rounded=0;orthogonalLoop=1;jettySize=auto;html=1;" edge="1" parent="BcH7QsxdrP2YL8XhsOHd-93" source="BcH7QsxdrP2YL8XhsOHd-102" target="BcH7QsxdrP2YL8XhsOHd-103">
          <mxGeometry relative="1" as="geometry" />
        </mxCell>
        <mxCell id="BcH7QsxdrP2YL8XhsOHd-102" value="" style="points=[[0,0,0],[0.25,0,0],[0.5,0,0],[0.75,0,0],[1,0,0],[0,1,0],[0.25,1,0],[0.5,1,0],[0.75,1,0],[1,1,0],[0,0.25,0],[0,0.5,0],[0,0.75,0],[1,0.25,0],[1,0.5,0],[1,0.75,0]];outlineConnect=0;fontColor=#232F3E;gradientColor=#945DF2;gradientDirection=north;fillColor=#5A30B5;strokeColor=#ffffff;dashed=0;verticalLabelPosition=bottom;verticalAlign=top;align=center;html=1;fontSize=12;fontStyle=0;aspect=fixed;shape=mxgraph.aws4.resourceIcon;resIcon=mxgraph.aws4.client_vpn;" vertex="1" parent="BcH7QsxdrP2YL8XhsOHd-93">
          <mxGeometry x="320" y="320" width="40" height="40" as="geometry" />
        </mxCell>
        <mxCell id="BcH7QsxdrP2YL8XhsOHd-103" value="" style="outlineConnect=0;fontColor=#232F3E;gradientColor=none;fillColor=#FF9900;strokeColor=none;dashed=0;verticalLabelPosition=bottom;verticalAlign=top;align=center;html=1;fontSize=12;fontStyle=0;aspect=fixed;pointerEvents=1;shape=mxgraph.aws4.instance2;" vertex="1" parent="BcH7QsxdrP2YL8XhsOHd-93">
          <mxGeometry x="320" y="440" width="40" height="40" as="geometry" />
        </mxCell>
        <mxCell id="BcH7QsxdrP2YL8XhsOHd-104" style="edgeStyle=orthogonalEdgeStyle;rounded=0;orthogonalLoop=1;jettySize=auto;html=1;" edge="1" parent="BcH7QsxdrP2YL8XhsOHd-93" source="BcH7QsxdrP2YL8XhsOHd-105" target="BcH7QsxdrP2YL8XhsOHd-111">
          <mxGeometry relative="1" as="geometry" />
        </mxCell>
        <mxCell id="BcH7QsxdrP2YL8XhsOHd-105" value="" style="outlineConnect=0;fontColor=#232F3E;gradientColor=none;fillColor=#FF9900;strokeColor=none;dashed=0;verticalLabelPosition=bottom;verticalAlign=top;align=center;html=1;fontSize=12;fontStyle=0;aspect=fixed;pointerEvents=1;shape=mxgraph.aws4.instances;" vertex="1" parent="BcH7QsxdrP2YL8XhsOHd-93">
          <mxGeometry x="440" y="440" width="40" height="40" as="geometry" />
        </mxCell>
        <mxCell id="BcH7QsxdrP2YL8XhsOHd-106" style="edgeStyle=orthogonalEdgeStyle;rounded=0;orthogonalLoop=1;jettySize=auto;html=1;entryX=0;entryY=0.5;entryDx=0;entryDy=0;entryPerimeter=0;exitX=0.5;exitY=1;exitDx=0;exitDy=0;exitPerimeter=0;" edge="1" parent="BcH7QsxdrP2YL8XhsOHd-93" source="BcH7QsxdrP2YL8XhsOHd-107" target="BcH7QsxdrP2YL8XhsOHd-108">
          <mxGeometry relative="1" as="geometry">
            <mxPoint x="240" y="600" as="targetPoint" />
          </mxGeometry>
        </mxCell>
        <mxCell id="BcH7QsxdrP2YL8XhsOHd-107" value="" style="points=[[0,0,0],[0.25,0,0],[0.5,0,0],[0.75,0,0],[1,0,0],[0,1,0],[0.25,1,0],[0.5,1,0],[0.75,1,0],[1,1,0],[0,0.25,0],[0,0.5,0],[0,0.75,0],[1,0.25,0],[1,0.5,0],[1,0.75,0]];outlineConnect=0;fontColor=#232F3E;gradientColor=#4AB29A;gradientDirection=north;fillColor=#116D5B;strokeColor=#ffffff;dashed=0;verticalLabelPosition=bottom;verticalAlign=top;align=center;html=1;fontSize=12;fontStyle=0;aspect=fixed;shape=mxgraph.aws4.resourceIcon;resIcon=mxgraph.aws4.transfer_for_sftp;" vertex="1" parent="BcH7QsxdrP2YL8XhsOHd-93">
          <mxGeometry x="220" y="502" width="40" height="40" as="geometry" />
        </mxCell>
        <mxCell id="BcH7QsxdrP2YL8XhsOHd-108" value="" style="points=[[0,0,0],[0.25,0,0],[0.5,0,0],[0.75,0,0],[1,0,0],[0,1,0],[0.25,1,0],[0.5,1,0],[0.75,1,0],[1,1,0],[0,0.25,0],[0,0.5,0],[0,0.75,0],[1,0.25,0],[1,0.5,0],[1,0.75,0]];outlineConnect=0;fontColor=#232F3E;gradientColor=#60A337;gradientDirection=north;fillColor=#277116;strokeColor=#ffffff;dashed=0;verticalLabelPosition=bottom;verticalAlign=top;align=center;html=1;fontSize=12;fontStyle=0;aspect=fixed;shape=mxgraph.aws4.resourceIcon;resIcon=mxgraph.aws4.fsx_for_windows_file_server;" vertex="1" parent="BcH7QsxdrP2YL8XhsOHd-93">
          <mxGeometry x="320" y="570" width="40" height="40" as="geometry" />
        </mxCell>
        <mxCell id="BcH7QsxdrP2YL8XhsOHd-109" value="" style="outlineConnect=0;fontColor=#232F3E;gradientColor=none;fillColor=#FF9900;strokeColor=none;dashed=0;verticalLabelPosition=bottom;verticalAlign=top;align=center;html=1;fontSize=12;fontStyle=0;aspect=fixed;pointerEvents=1;shape=mxgraph.aws4.instance2;" vertex="1" parent="BcH7QsxdrP2YL8XhsOHd-93">
          <mxGeometry x="320" y="690" width="40" height="40" as="geometry" />
        </mxCell>
        <mxCell id="BcH7QsxdrP2YL8XhsOHd-110" style="edgeStyle=orthogonalEdgeStyle;rounded=0;orthogonalLoop=1;jettySize=auto;html=1;" edge="1" parent="BcH7QsxdrP2YL8XhsOHd-93" source="BcH7QsxdrP2YL8XhsOHd-111" target="BcH7QsxdrP2YL8XhsOHd-117">
          <mxGeometry relative="1" as="geometry" />
        </mxCell>
        <mxCell id="BcH7QsxdrP2YL8XhsOHd-111" value="" style="outlineConnect=0;fontColor=#232F3E;gradientColor=none;fillColor=#FF9900;strokeColor=none;dashed=0;verticalLabelPosition=bottom;verticalAlign=top;align=center;html=1;fontSize=12;fontStyle=0;aspect=fixed;pointerEvents=1;shape=mxgraph.aws4.db_on_instance2;" vertex="1" parent="BcH7QsxdrP2YL8XhsOHd-93">
          <mxGeometry x="440" y="690" width="40" height="40" as="geometry" />
        </mxCell>
        <mxCell id="BcH7QsxdrP2YL8XhsOHd-112" value="" style="points=[[0,0,0],[0.25,0,0],[0.5,0,0],[0.75,0,0],[1,0,0],[0,1,0],[0.25,1,0],[0.5,1,0],[0.75,1,0],[1,1,0],[0,0.25,0],[0,0.5,0],[0,0.75,0],[1,0.25,0],[1,0.5,0],[1,0.75,0]];outlineConnect=0;fontColor=#232F3E;gradientColor=#F78E04;gradientDirection=north;fillColor=#D05C17;strokeColor=#ffffff;dashed=0;verticalLabelPosition=bottom;verticalAlign=top;align=center;html=1;fontSize=12;fontStyle=0;aspect=fixed;shape=mxgraph.aws4.resourceIcon;resIcon=mxgraph.aws4.auto_scaling2;" vertex="1" parent="BcH7QsxdrP2YL8XhsOHd-93">
          <mxGeometry x="600" y="440" width="40" height="40" as="geometry" />
        </mxCell>
        <mxCell id="BcH7QsxdrP2YL8XhsOHd-113" style="edgeStyle=orthogonalEdgeStyle;rounded=0;orthogonalLoop=1;jettySize=auto;html=1;" edge="1" parent="BcH7QsxdrP2YL8XhsOHd-93" source="BcH7QsxdrP2YL8XhsOHd-114" target="BcH7QsxdrP2YL8XhsOHd-117">
          <mxGeometry relative="1" as="geometry" />
        </mxCell>
        <mxCell id="BcH7QsxdrP2YL8XhsOHd-114" value="" style="outlineConnect=0;fontColor=#232F3E;gradientColor=none;fillColor=#FF9900;strokeColor=none;dashed=0;verticalLabelPosition=bottom;verticalAlign=top;align=center;html=1;fontSize=12;fontStyle=0;aspect=fixed;pointerEvents=1;shape=mxgraph.aws4.instances;" vertex="1" parent="BcH7QsxdrP2YL8XhsOHd-93">
          <mxGeometry x="840" y="440" width="40" height="40" as="geometry" />
        </mxCell>
        <mxCell id="BcH7QsxdrP2YL8XhsOHd-115" value="" style="points=[[0,0,0],[0.25,0,0],[0.5,0,0],[0.75,0,0],[1,0,0],[0,1,0],[0.25,1,0],[0.5,1,0],[0.75,1,0],[1,1,0],[0,0.25,0],[0,0.5,0],[0,0.75,0],[1,0.25,0],[1,0.5,0],[1,0.75,0]];outlineConnect=0;fontColor=#232F3E;gradientColor=#60A337;gradientDirection=north;fillColor=#277116;strokeColor=#ffffff;dashed=0;verticalLabelPosition=bottom;verticalAlign=top;align=center;html=1;fontSize=12;fontStyle=0;aspect=fixed;shape=mxgraph.aws4.resourceIcon;resIcon=mxgraph.aws4.fsx_for_windows_file_server;" vertex="1" parent="BcH7QsxdrP2YL8XhsOHd-93">
          <mxGeometry x="720" y="560" width="40" height="40" as="geometry" />
        </mxCell>
        <mxCell id="BcH7QsxdrP2YL8XhsOHd-116" style="edgeStyle=orthogonalEdgeStyle;rounded=0;orthogonalLoop=1;jettySize=auto;html=1;" edge="1" parent="BcH7QsxdrP2YL8XhsOHd-93" source="BcH7QsxdrP2YL8XhsOHd-117" target="BcH7QsxdrP2YL8XhsOHd-111">
          <mxGeometry relative="1" as="geometry" />
        </mxCell>
        <mxCell id="BcH7QsxdrP2YL8XhsOHd-117" value="" style="outlineConnect=0;fontColor=#232F3E;gradientColor=none;fillColor=#FF9900;strokeColor=none;dashed=0;verticalLabelPosition=bottom;verticalAlign=top;align=center;html=1;fontSize=12;fontStyle=0;aspect=fixed;pointerEvents=1;shape=mxgraph.aws4.db_on_instance2;" vertex="1" parent="BcH7QsxdrP2YL8XhsOHd-93">
          <mxGeometry x="840" y="690" width="40" height="40" as="geometry" />
        </mxCell>
        <mxCell id="BcH7QsxdrP2YL8XhsOHd-118" value="" style="points=[[0,0,0],[0.25,0,0],[0.5,0,0],[0.75,0,0],[1,0,0],[0,1,0],[0.25,1,0],[0.5,1,0],[0.75,1,0],[1,1,0],[0,0.25,0],[0,0.5,0],[0,0.75,0],[1,0.25,0],[1,0.5,0],[1,0.75,0]];points=[[0,0,0],[0.25,0,0],[0.5,0,0],[0.75,0,0],[1,0,0],[0,1,0],[0.25,1,0],[0.5,1,0],[0.75,1,0],[1,1,0],[0,0.25,0],[0,0.5,0],[0,0.75,0],[1,0.25,0],[1,0.5,0],[1,0.75,0]];outlineConnect=0;fontColor=#232F3E;gradientColor=#F34482;gradientDirection=north;fillColor=#BC1356;strokeColor=#ffffff;dashed=0;verticalLabelPosition=bottom;verticalAlign=top;align=center;html=1;fontSize=12;fontStyle=0;aspect=fixed;shape=mxgraph.aws4.resourceIcon;resIcon=mxgraph.aws4.systems_manager;" vertex="1" parent="BcH7QsxdrP2YL8XhsOHd-93">
          <mxGeometry x="1060" y="680" width="40" height="40" as="geometry" />
        </mxCell>
        <mxCell id="BcH7QsxdrP2YL8XhsOHd-119" value="" style="points=[[0,0,0],[0.25,0,0],[0.5,0,0],[0.75,0,0],[1,0,0],[0,1,0],[0.25,1,0],[0.5,1,0],[0.75,1,0],[1,1,0],[0,0.25,0],[0,0.5,0],[0,0.75,0],[1,0.25,0],[1,0.5,0],[1,0.75,0]];outlineConnect=0;fontColor=#232F3E;gradientColor=#F54749;gradientDirection=north;fillColor=#C7131F;strokeColor=#ffffff;dashed=0;verticalLabelPosition=bottom;verticalAlign=top;align=center;html=1;fontSize=12;fontStyle=0;aspect=fixed;shape=mxgraph.aws4.resourceIcon;resIcon=mxgraph.aws4.directory_service;" vertex="1" parent="BcH7QsxdrP2YL8XhsOHd-93">
          <mxGeometry x="1060" y="600" width="40" height="40" as="geometry" />
        </mxCell>
        <mxCell id="BcH7QsxdrP2YL8XhsOHd-120" style="edgeStyle=orthogonalEdgeStyle;rounded=0;orthogonalLoop=1;jettySize=auto;html=1;" edge="1" parent="BcH7QsxdrP2YL8XhsOHd-93" source="BcH7QsxdrP2YL8XhsOHd-121" target="BcH7QsxdrP2YL8XhsOHd-86">
          <mxGeometry relative="1" as="geometry" />
        </mxCell>
        <mxCell id="BcH7QsxdrP2YL8XhsOHd-121" value="" style="points=[[0,0,0],[0.25,0,0],[0.5,0,0],[0.75,0,0],[1,0,0],[0,1,0],[0.25,1,0],[0.5,1,0],[0.75,1,0],[1,1,0],[0,0.25,0],[0,0.5,0],[0,0.75,0],[1,0.25,0],[1,0.5,0],[1,0.75,0]];outlineConnect=0;fontColor=#232F3E;gradientColor=#60A337;gradientDirection=north;fillColor=#277116;strokeColor=#ffffff;dashed=0;verticalLabelPosition=bottom;verticalAlign=top;align=center;html=1;fontSize=12;fontStyle=0;aspect=fixed;shape=mxgraph.aws4.resourceIcon;resIcon=mxgraph.aws4.s3;" vertex="1" parent="BcH7QsxdrP2YL8XhsOHd-93">
          <mxGeometry x="1060" y="400" width="40" height="40" as="geometry" />
        </mxCell>
        <mxCell id="BcH7QsxdrP2YL8XhsOHd-122" value="" style="points=[[0,0,0],[0.25,0,0],[0.5,0,0],[0.75,0,0],[1,0,0],[0,1,0],[0.25,1,0],[0.5,1,0],[0.75,1,0],[1,1,0],[0,0.25,0],[0,0.5,0],[0,0.75,0],[1,0.25,0],[1,0.5,0],[1,0.75,0]];outlineConnect=0;fontColor=#232F3E;gradientColor=#945DF2;gradientDirection=north;fillColor=#5A30B5;strokeColor=#ffffff;dashed=0;verticalLabelPosition=bottom;verticalAlign=top;align=center;html=1;fontSize=12;fontStyle=0;aspect=fixed;shape=mxgraph.aws4.resourceIcon;resIcon=mxgraph.aws4.route_53;" vertex="1" parent="BcH7QsxdrP2YL8XhsOHd-93">
          <mxGeometry x="1060" y="320" width="40" height="40" as="geometry" />
        </mxCell>
        <mxCell id="BcH7QsxdrP2YL8XhsOHd-123" value="" style="outlineConnect=0;fontColor=#232F3E;gradientColor=none;fillColor=#232F3E;strokeColor=none;dashed=0;verticalLabelPosition=bottom;verticalAlign=top;align=center;html=1;fontSize=12;fontStyle=0;aspect=fixed;pointerEvents=1;shape=mxgraph.aws4.users;" vertex="1" parent="BcH7QsxdrP2YL8XhsOHd-93">
          <mxGeometry x="40.93000000000001" y="320" width="40" height="40" as="geometry" />
        </mxCell>
        <mxCell id="BcH7QsxdrP2YL8XhsOHd-124" value="" style="outlineConnect=0;fontColor=#232F3E;gradientColor=none;fillColor=#232F3E;strokeColor=none;dashed=0;verticalLabelPosition=bottom;verticalAlign=top;align=center;html=1;fontSize=12;fontStyle=0;aspect=fixed;pointerEvents=1;shape=mxgraph.aws4.external_toolkit;spacing=0;" vertex="1" parent="BcH7QsxdrP2YL8XhsOHd-93">
          <mxGeometry x="60" y="430" width="34.87" height="40" as="geometry" />
        </mxCell>
        <mxCell id="BcH7QsxdrP2YL8XhsOHd-125" style="edgeStyle=orthogonalEdgeStyle;rounded=0;orthogonalLoop=1;jettySize=auto;html=1;exitX=1;exitY=0.424;exitDx=0;exitDy=0;exitPerimeter=0;" edge="1" parent="BcH7QsxdrP2YL8XhsOHd-93" source="BcH7QsxdrP2YL8XhsOHd-92" target="BcH7QsxdrP2YL8XhsOHd-88">
          <mxGeometry relative="1" as="geometry" />
        </mxCell>
        <mxCell id="BcH7QsxdrP2YL8XhsOHd-126" style="edgeStyle=orthogonalEdgeStyle;rounded=0;orthogonalLoop=1;jettySize=auto;html=1;exitX=1;exitY=0.75;exitDx=0;exitDy=0;" edge="1" parent="BcH7QsxdrP2YL8XhsOHd-93" source="BcH7QsxdrP2YL8XhsOHd-92" target="BcH7QsxdrP2YL8XhsOHd-107">
          <mxGeometry relative="1" as="geometry" />
        </mxCell>
        <mxCell id="BcH7QsxdrP2YL8XhsOHd-127" style="edgeStyle=orthogonalEdgeStyle;rounded=0;orthogonalLoop=1;jettySize=auto;html=1;entryX=0;entryY=0.5;entryDx=0;entryDy=0;entryPerimeter=0;" edge="1" parent="BcH7QsxdrP2YL8XhsOHd-93" source="BcH7QsxdrP2YL8XhsOHd-86" target="BcH7QsxdrP2YL8XhsOHd-121">
          <mxGeometry relative="1" as="geometry" />
        </mxCell>
        <mxCell id="BcH7QsxdrP2YL8XhsOHd-128" value="Remote Users" style="text;html=1;strokeColor=none;fillColor=none;align=center;verticalAlign=middle;whiteSpace=wrap;rounded=0;" vertex="1" parent="BcH7QsxdrP2YL8XhsOHd-93">
          <mxGeometry x="320" y="210" width="40" height="20" as="geometry" />
        </mxCell>
        <mxCell id="BcH7QsxdrP2YL8XhsOHd-129" value="Users" style="text;html=1;strokeColor=none;fillColor=none;align=center;verticalAlign=middle;whiteSpace=wrap;rounded=0;" vertex="1" parent="BcH7QsxdrP2YL8XhsOHd-93">
          <mxGeometry x="560" y="210" width="40" height="20" as="geometry" />
        </mxCell>
        <mxCell id="BcH7QsxdrP2YL8XhsOHd-130" value="Direct Connect" style="text;html=1;strokeColor=none;fillColor=none;align=center;verticalAlign=middle;whiteSpace=wrap;rounded=0;" vertex="1" parent="BcH7QsxdrP2YL8XhsOHd-93">
          <mxGeometry x="500" y="190" width="40" height="20" as="geometry" />
        </mxCell>
        <mxCell id="BcH7QsxdrP2YL8XhsOHd-131" value="Internet" style="text;html=1;strokeColor=none;fillColor=none;align=center;verticalAlign=middle;whiteSpace=wrap;rounded=0;" vertex="1" parent="BcH7QsxdrP2YL8XhsOHd-93">
          <mxGeometry x="390" y="190" width="40" height="20" as="geometry" />
        </mxCell>
        <mxCell id="BcH7QsxdrP2YL8XhsOHd-132" value="&lt;font style=&quot;font-size: 14px&quot;&gt;Multi-AZ&lt;br&gt;Amazon FSx for Windows File Server&lt;/font&gt;" style="text;html=1;strokeColor=none;fillColor=none;align=center;verticalAlign=middle;whiteSpace=wrap;rounded=0;" vertex="1" parent="BcH7QsxdrP2YL8XhsOHd-93">
          <mxGeometry x="480" y="570" width="240" height="20" as="geometry" />
        </mxCell>
        <mxCell id="BcH7QsxdrP2YL8XhsOHd-133" value="Auto Scaling Group" style="text;html=1;strokeColor=none;fillColor=none;align=center;verticalAlign=middle;whiteSpace=wrap;rounded=0;" vertex="1" parent="BcH7QsxdrP2YL8XhsOHd-93">
          <mxGeometry x="580" y="482" width="80" height="20" as="geometry" />
        </mxCell>
        <mxCell id="BcH7QsxdrP2YL8XhsOHd-134" value="&lt;font style=&quot;font-size: 14px&quot;&gt;Database Replication&lt;/font&gt;" style="text;html=1;strokeColor=none;fillColor=none;align=center;verticalAlign=middle;whiteSpace=wrap;rounded=0;" vertex="1" parent="BcH7QsxdrP2YL8XhsOHd-93">
          <mxGeometry x="560" y="700" width="120" height="20" as="geometry" />
        </mxCell>
        <mxCell id="BcH7QsxdrP2YL8XhsOHd-135" value="&lt;font style=&quot;font-size: 14px&quot;&gt;AWS Transfer for SFTP&lt;/font&gt;" style="text;html=1;strokeColor=none;fillColor=none;align=center;verticalAlign=middle;whiteSpace=wrap;rounded=0;" vertex="1" parent="BcH7QsxdrP2YL8XhsOHd-93">
          <mxGeometry x="140" y="520" width="80" height="20" as="geometry" />
        </mxCell>
        <mxCell id="BcH7QsxdrP2YL8XhsOHd-136" value="&lt;font style=&quot;font-size: 14px&quot;&gt;API/HTTPS&amp;nbsp;&lt;/font&gt;" style="text;html=1;strokeColor=none;fillColor=none;align=center;verticalAlign=middle;whiteSpace=wrap;rounded=0;" vertex="1" parent="BcH7QsxdrP2YL8XhsOHd-93">
          <mxGeometry x="190" y="460" width="80" height="20" as="geometry" />
        </mxCell>
        <mxCell id="BcH7QsxdrP2YL8XhsOHd-137" value="&lt;font style=&quot;font-size: 14px&quot;&gt;Application Support&lt;/font&gt;" style="text;html=1;strokeColor=none;fillColor=none;align=center;verticalAlign=middle;whiteSpace=wrap;rounded=0;" vertex="1" parent="BcH7QsxdrP2YL8XhsOHd-93">
          <mxGeometry x="20.930000000000007" y="290" width="80" height="20" as="geometry" />
        </mxCell>
        <mxCell id="BcH7QsxdrP2YL8XhsOHd-138" value="&lt;font style=&quot;font-size: 14px&quot;&gt;AWS Client VPN&lt;/font&gt;" style="text;html=1;strokeColor=none;fillColor=none;align=center;verticalAlign=middle;whiteSpace=wrap;rounded=0;" vertex="1" parent="BcH7QsxdrP2YL8XhsOHd-93">
          <mxGeometry x="180" y="340" width="120" height="20" as="geometry" />
        </mxCell>
        <mxCell id="BcH7QsxdrP2YL8XhsOHd-139" value="&lt;font style=&quot;font-size: 14px&quot;&gt;Bastion Host&lt;/font&gt;" style="text;html=1;strokeColor=none;fillColor=none;align=center;verticalAlign=middle;whiteSpace=wrap;rounded=0;" vertex="1" parent="BcH7QsxdrP2YL8XhsOHd-93">
          <mxGeometry x="300" y="490" width="80" height="20" as="geometry" />
        </mxCell>
        <mxCell id="BcH7QsxdrP2YL8XhsOHd-140" value="&lt;font style=&quot;font-size: 14px&quot;&gt;HRMS App Server Farm&lt;/font&gt;" style="text;html=1;strokeColor=none;fillColor=none;align=center;verticalAlign=middle;whiteSpace=wrap;rounded=0;" vertex="1" parent="BcH7QsxdrP2YL8XhsOHd-93">
          <mxGeometry x="480" y="450" width="85" height="20" as="geometry" />
        </mxCell>
        <mxCell id="BcH7QsxdrP2YL8XhsOHd-141" value="&lt;font style=&quot;font-size: 14px&quot;&gt;HRMS App Server Farm&lt;br&gt;(Standby)&lt;br&gt;&lt;/font&gt;" style="text;html=1;strokeColor=none;fillColor=none;align=center;verticalAlign=middle;whiteSpace=wrap;rounded=0;" vertex="1" parent="BcH7QsxdrP2YL8XhsOHd-93">
          <mxGeometry x="750" y="450" width="85" height="20" as="geometry" />
        </mxCell>
        <mxCell id="BcH7QsxdrP2YL8XhsOHd-142" value="&lt;font style=&quot;font-size: 14px&quot;&gt;HRMS Failover Connection&lt;br&gt;&lt;/font&gt;" style="text;html=1;strokeColor=none;fillColor=none;align=center;verticalAlign=middle;whiteSpace=wrap;rounded=0;" vertex="1" parent="BcH7QsxdrP2YL8XhsOHd-93">
          <mxGeometry x="680" y="346" width="140" height="20" as="geometry" />
        </mxCell>
        <mxCell id="BcH7QsxdrP2YL8XhsOHd-143" value="&lt;font style=&quot;font-size: 14px&quot;&gt;Job Server&lt;/font&gt;" style="text;html=1;strokeColor=none;fillColor=none;align=center;verticalAlign=middle;whiteSpace=wrap;rounded=0;" vertex="1" parent="BcH7QsxdrP2YL8XhsOHd-93">
          <mxGeometry x="300" y="733" width="80" height="20" as="geometry" />
        </mxCell>
        <mxCell id="BcH7QsxdrP2YL8XhsOHd-144" value="&lt;font style=&quot;font-size: 14px&quot;&gt;HRMS Database&lt;/font&gt;" style="text;html=1;strokeColor=none;fillColor=none;align=center;verticalAlign=middle;whiteSpace=wrap;rounded=0;" vertex="1" parent="BcH7QsxdrP2YL8XhsOHd-93">
          <mxGeometry x="420" y="733" width="80" height="20" as="geometry" />
        </mxCell>
        <mxCell id="BcH7QsxdrP2YL8XhsOHd-145" value="&lt;font style=&quot;font-size: 14px&quot;&gt;HRMS Database&lt;br&gt;(Standby)&lt;br&gt;&lt;/font&gt;" style="text;html=1;strokeColor=none;fillColor=none;align=center;verticalAlign=middle;whiteSpace=wrap;rounded=0;" vertex="1" parent="BcH7QsxdrP2YL8XhsOHd-93">
          <mxGeometry x="805" y="733" width="110" height="20" as="geometry" />
        </mxCell>
        <mxCell id="BcH7QsxdrP2YL8XhsOHd-146" value="&lt;div style=&quot;text-align: left&quot;&gt;&lt;span style=&quot;font-size: 14px&quot;&gt;Amazon S3&lt;/span&gt;&lt;/div&gt;&lt;font style=&quot;font-size: 14px&quot;&gt;&lt;div style=&quot;text-align: left&quot;&gt;&lt;span&gt;1.Application&amp;nbsp; Binaries&lt;/span&gt;&lt;/div&gt;&lt;/font&gt;&lt;font style=&quot;font-size: 14px&quot;&gt;&lt;div style=&quot;text-align: left&quot;&gt;&lt;span&gt;2.Web Driver&amp;nbsp;&lt;/span&gt;&lt;/div&gt;&lt;div style=&quot;text-align: left&quot;&gt;&lt;span&gt;3.Backup&lt;/span&gt;&lt;/div&gt;&lt;/font&gt;" style="text;html=1;strokeColor=none;fillColor=none;align=center;verticalAlign=middle;whiteSpace=wrap;rounded=0;" vertex="1" parent="BcH7QsxdrP2YL8XhsOHd-93">
          <mxGeometry x="1035" y="470" width="100" height="20" as="geometry" />
        </mxCell>
        <mxCell id="BcH7QsxdrP2YL8XhsOHd-147" value="&lt;div style=&quot;text-align: left&quot;&gt;&lt;span style=&quot;font-size: 14px&quot;&gt;Route 53&lt;/span&gt;&lt;/div&gt;" style="text;html=1;strokeColor=none;fillColor=none;align=center;verticalAlign=middle;whiteSpace=wrap;rounded=0;" vertex="1" parent="BcH7QsxdrP2YL8XhsOHd-93">
          <mxGeometry x="1025" y="360" width="110" height="20" as="geometry" />
        </mxCell>
        <mxCell id="BcH7QsxdrP2YL8XhsOHd-148" value="&lt;div style=&quot;text-align: left&quot;&gt;&lt;span style=&quot;font-size: 14px&quot;&gt;Cloud Trail&lt;/span&gt;&lt;/div&gt;" style="text;html=1;strokeColor=none;fillColor=none;align=center;verticalAlign=middle;whiteSpace=wrap;rounded=0;" vertex="1" parent="BcH7QsxdrP2YL8XhsOHd-93">
          <mxGeometry x="1025" y="560" width="110" height="20" as="geometry" />
        </mxCell>
        <mxCell id="BcH7QsxdrP2YL8XhsOHd-149" value="" style="points=[[0,0,0],[0.25,0,0],[0.5,0,0],[0.75,0,0],[1,0,0],[0,1,0],[0.25,1,0],[0.5,1,0],[0.75,1,0],[1,1,0],[0,0.25,0],[0,0.5,0],[0,0.75,0],[1,0.25,0],[1,0.5,0],[1,0.75,0]];points=[[0,0,0],[0.25,0,0],[0.5,0,0],[0.75,0,0],[1,0,0],[0,1,0],[0.25,1,0],[0.5,1,0],[0.75,1,0],[1,1,0],[0,0.25,0],[0,0.5,0],[0,0.75,0],[1,0.25,0],[1,0.5,0],[1,0.75,0]];outlineConnect=0;fontColor=#232F3E;gradientColor=#F34482;gradientDirection=north;fillColor=#BC1356;strokeColor=#ffffff;dashed=0;verticalLabelPosition=bottom;verticalAlign=top;align=center;html=1;fontSize=12;fontStyle=0;aspect=fixed;shape=mxgraph.aws4.resourceIcon;resIcon=mxgraph.aws4.cloudtrail;" vertex="1" parent="BcH7QsxdrP2YL8XhsOHd-93">
          <mxGeometry x="1060" y="520" width="40" height="40" as="geometry" />
        </mxCell>
        <mxCell id="BcH7QsxdrP2YL8XhsOHd-150" value="&lt;div style=&quot;text-align: left&quot;&gt;&lt;span style=&quot;font-size: 14px&quot;&gt;IAM&lt;/span&gt;&lt;/div&gt;" style="text;html=1;strokeColor=none;fillColor=none;align=center;verticalAlign=middle;whiteSpace=wrap;rounded=0;" vertex="1" parent="BcH7QsxdrP2YL8XhsOHd-93">
          <mxGeometry x="1025" y="640" width="110" height="20" as="geometry" />
        </mxCell>
        <mxCell id="BcH7QsxdrP2YL8XhsOHd-151" value="&lt;div&gt;&lt;span style=&quot;font-size: 14px&quot;&gt;AWS System Manager&lt;/span&gt;&lt;/div&gt;" style="text;html=1;strokeColor=none;fillColor=none;align=center;verticalAlign=middle;whiteSpace=wrap;rounded=0;" vertex="1" parent="BcH7QsxdrP2YL8XhsOHd-93">
          <mxGeometry x="1025" y="730" width="110" height="20" as="geometry" />
        </mxCell>
        <mxCell id="BcH7QsxdrP2YL8XhsOHd-152" value="&lt;font style=&quot;font-size: 14px&quot;&gt;AWS AppStream&lt;/font&gt;" style="text;html=1;strokeColor=none;fillColor=none;align=center;verticalAlign=middle;whiteSpace=wrap;rounded=0;" vertex="1" parent="BcH7QsxdrP2YL8XhsOHd-93">
          <mxGeometry x="490" y="346" width="50" height="20" as="geometry" />
        </mxCell>
      </root>
    </mxGraphModel>
  </diagram>
</mxfile>
